<?xml version="1.0" standalone="no"?><!DOCTYPE svg PUBLIC "-//W3C//DTD SVG 1.1//EN" "http://www.w3.org/Graphics/SVG/1.1/DTD/svg11.dtd"><svg t="1487764538239" class="icon" style="" viewBox="0 0 1024 1024" version="1.1" xmlns="http://www.w3.org/2000/svg" p-id="2603" xmlns:xlink="http://www.w3.org/1999/xlink" width="200" height="200"><defs><style type="text/css"></style></defs><path d="M55.761 513.37c0 0.006 0 0.014 0 0.021 0 253.85 205.786 459.636 459.636 459.636 253.85 0 459.636-205.786 459.636-459.636 0-0.008 0-0.015 0-0.023 0-0.005 0-0.013 0-0.020 0-253.85-205.786-459.636-459.636-459.636-253.85 0-459.636 205.786-459.636 459.636 0 0.008 0 0.015 0 0.023z" fill="#287df7" p-id="2604"></path><path d="M916.957 426.865c5.783-12.067 3.549-26.321-5.201-36.445-12.497-14.452-39.599-30.313-76.416-23.599-61.033 11.136-216.995 82.583-250.287 98.025-3.037 1.408-4.561 6.144-2.025 8.332 6.214 5.376 17.745 13.836 15.034 16.733-14.79 15.756-143.756 65.455-155.636 67.642-10.95 2.013-18.188-1.094-23.273-17.094-46.836 23.994-224.047 92.079-243.828 113.001 1.071 21.527 80.256 64.198 198.656 33.652 129.222-33.338 423.052-159.907 485.597-201.937 32.5-21.865 50.653-44.276 57.379-58.31z" fill="#FFFFFF" p-id="2605"></path><path d="M575.383 488.339c2.186-1.496 3.602-3.978 3.602-6.792 0-2.753-1.357-5.19-3.438-6.678-35.76-25.396-171.103-120.488-223.362-139.863-58.903-21.83-79.441 21.551-68.736 39.017s122.682 152.215 149.772 170.729c18.234 0 111.313-35.107 142.161-56.413zM133.388 534.339c-28.369 11.427-27.52 25.018-12.218 51.782 15.29 26.775 42.857 45.708 54.144 41.833 11.299-3.875 115.689-42.973 94.895-64.268-20.794-21.306-101.551-43.555-136.82-29.347z" fill="#FFFFFF" p-id="2606"></path></svg>