<?xml version="1.0" standalone="no"?><!DOCTYPE svg PUBLIC "-//W3C//DTD SVG 1.1//EN" "http://www.w3.org/Graphics/SVG/1.1/DTD/svg11.dtd"><svg t="1487764514451" class="icon" style="" viewBox="0 0 1024 1024" version="1.1" xmlns="http://www.w3.org/2000/svg" p-id="2480" xmlns:xlink="http://www.w3.org/1999/xlink" width="200" height="200"><defs><style type="text/css"></style></defs><path d="M426.2 469.493s-21.2 22.611-62.182-4.24c-40.986-26.847-94.689-67.826-94.689-67.826s-15.437-13.409-28.261-7.473c-14.333 6.637-2.832 29.835 2.397 42.748 4.243 10.478 90.431 186.163 90.431 186.163s6.207 20.169 25.348 20.169c18.287 0 555.387-321.441 603.362-350.174 37.391 59.756 58.647 127.799 58.647 200.057 0 237.18-228.013 429.455-509.283 429.455-64.938 0-126.973-10.364-184.086-29.05-26.476 3.236-118.808 64.661-126.045 67.075-7.485 2.495-22.957 10.979-31.441 2.495-8.485-8.485 0-27.95 0-27.95s14.475-41.419 21.46-72.864c3.359-15.115 3.577-25.982 2.926-33.292C77.763 746.096 2.69 624.937 2.69 488.917c0-237.18 228.013-429.452 509.279-429.452 171.65 0 323.355 71.686 415.609 181.408L426.2 469.493z" fill="#40AF36" p-id="2481"></path></svg>